<?xml version="1.0" standalone="no"?>
<!DOCTYPE svg PUBLIC "-//W3C//DTD SVG 20010904//EN"
 "http://www.w3.org/TR/2001/REC-SVG-20010904/DTD/svg10.dtd">
<svg version="1.0" xmlns="http://www.w3.org/2000/svg"
 width="206.000000pt" height="223.000000pt" viewBox="0 0 206.000000 223.000000"
 preserveAspectRatio="xMidYMid meet">

<g transform="translate(0.000000,223.000000) scale(0.100000,-0.100000)"
fill="#000000" stroke="none">
<path d="M875 2073 c-62 -9 -213 -56 -283 -88 -242 -112 -405 -290 -512 -560
-51 -129 -72 -324 -50 -465 79 -493 494 -850 990 -850 221 0 462 92 639 243
251 215 385 582 327 895 -68 371 -297 643 -651 777 -121 45 -327 67 -460 48z
m-418 -429 c3 -9 -6 -28 -24 -47 -39 -41 -83 -108 -117 -175 -75 -148 -92
-368 -41 -537 30 -103 77 -192 142 -271 39 -49 50 -84 26 -84 -4 0 -29 26 -55
58 -195 242 -234 576 -99 857 36 75 136 215 154 215 4 0 10 -7 14 -16z m189
-189 c3 -8 -7 -32 -23 -52 -77 -100 -106 -183 -106 -307 -1 -126 43 -246 119
-327 22 -23 23 -27 10 -38 -13 -11 -20 -8 -43 19 -82 95 -124 212 -124 345 0
129 31 222 108 328 36 49 50 57 59 32z m452 -184 c187 -96 122 -371 -88 -371
-211 0 -276 283 -85 371 52 24 126 24 173 0z m740 -263 l-3 -93 -142 -3 -143
-3 0 -213 c0 -205 -1 -214 -23 -247 -63 -93 -234 -117 -337 -47 -49 34 -71 69
-72 116 -1 95 89 162 216 162 70 0 144 -23 160 -49 21 -34 26 7 26 229 l0 240
160 0 161 0 -3 -92z"/>
<path d="M957 1246 c-73 -27 -107 -76 -107 -154 0 -157 208 -215 297 -82 32
46 32 124 0 170 -42 63 -122 91 -190 66z"/>
<path d="M1557 1063 c-4 -3 -7 -30 -7 -60 l0 -53 125 0 125 0 0 60 0 60 -118
0 c-65 0 -122 -3 -125 -7z"/>
<path d="M1268 641 c-79 -26 -124 -79 -114 -135 12 -63 87 -106 183 -106 176
1 244 152 101 226 -34 18 -134 26 -170 15z"/>
</g>
</svg>
